Genre:Action | Thriller
Language:English
IMDb:http://www.imdb.com/title/tt1506999/
Source:1080p.BluRay.x264-BLOW Thanks!
Encoder:Tony


Format : MPEG-4
Format profile : Base Media
Codec ID : isom
File size : 2.13 GiB
Duration : 1h 32mn
Overall bit rate mode : Variable
Overall bit rate : 3 286 Kbps

Video
ID : 1
Format : AVC
Format/Info : Advanced Video Codec
Format profile : High@L5.1
Format settings, CABAC : Yes
Format settings, ReFrames : 5 frames
Codec ID : avc1
Codec ID/Info : Advanced Video Coding
Duration : 1h 32mn
Bit rate : 3 000 Kbps
Maximum bit rate : 11.8 Mbps
Width : 1 280 pixels
Height : 528 pixels
Display aspect ratio : 2.40:1
Frame rate mode : Constant
Frame rate : 23.976 fps
Color space : YUV
Chroma subsampling : 4:2:0
Bit depth : 8 bits
Scan type : Progressive
Bits/(Pixel*Frame) : 0.185
Stream size : 1.89 GiB (89%)
Writing library : x264

Audio
ID : 2
Format : AAC
Format/Info : Advanced Audio Codec
Format profile : LC
Codec ID : 40
Duration : 1h 32mn
Bit rate mode : Variable
Bit rate : 366 Kbps
Maximum bit rate : 553 Kbps
Channel(s) : 6 channels
Channel positions : Front: L C R, Side: L R, LFE
Sampling rate : 48.0 KHz
Compression mode : Lossy
Stream size : 243 MiB (11%)


Plot:
A black ops super soldier seeks payback after she is betrayed and set up during a mission.